<svg xmlns="http://www.w3.org/2000/svg" width="800" height="500" fill="none"><defs><linearGradient id="a" x1="0" x2="800" y1="0" y2="500"><stop offset="0%" stop-color="#2563eb"/><stop offset="100%" stop-color="#60a5fa"/></linearGradient></defs><g stroke="#E5E7EB" opacity=".5"><path d="M100 70v350M300 70v350M500 70v350M700 70v350"/></g><g stroke="#E5E7EB" opacity=".5"><path d="M50 120h700M50 220h700M50 320h700M50 420h700"/></g><path stroke="url(#a)" stroke-width="3" d="M50 400q150-20 250-100t250-100 200-100" transform="translate(0 20)"><animate fill="freeze" attributeName="stroke-dasharray" dur="2s" from="0,1000" to="1000,1000"/></path><g fill="#2563eb" transform="translate(0 20)"><circle cx="300" cy="300" r="6"/><circle cx="550" cy="200" r="6"/><circle cx="750" cy="100" r="6"/></g><g transform="translate(100 150)"><circle r="40" fill="#2563eb" opacity=".1"/><text fill="#2563eb" dy="8" font-family="Arial" font-size="24" text-anchor="middle">25+</text><text y="30" fill="#64748b" font-family="Arial" font-size="12" text-anchor="middle">Years</text></g><g transform="translate(400 100)"><circle r="40" fill="#2563eb" opacity=".1"/><text fill="#2563eb" dy="8" font-family="Arial" font-size="24" text-anchor="middle">3500+</text><text y="30" fill="#64748b" font-family="Arial" font-size="12" text-anchor="middle">Projects</text></g><g transform="translate(700 200)"><circle r="40" fill="#2563eb" opacity=".1"/><text fill="#2563eb" dy="8" font-family="Arial" font-size="24" text-anchor="middle">1500+</text><text y="30" fill="#64748b" font-family="Arial" font-size="12" text-anchor="middle">Clients</text></g><path stroke="#2563eb" stroke-width="2" d="m150 450-50-50 50-50M250 450l50-50-50-50" opacity=".5"/><circle cx="600" cy="450" r="4" fill="#2563eb" opacity=".5"/><circle cx="650" cy="450" r="4" fill="#2563eb" opacity=".5"/><circle cx="700" cy="450" r="4" fill="#2563eb" opacity=".5"/><path stroke="#2563eb" d="M600 450h100" opacity=".3"/><circle cx="400" cy="250" r="60" stroke="#2563eb" stroke-width="2" opacity=".1"><animate attributeName="r" dur="3s" repeatCount="indefinite" values="60;80;60"/><animate attributeName="opacity" dur="3s" repeatCount="indefinite" values="0.1;0;0.1"/></circle><g font-family="Arial" text-anchor="middle"><text fill="#2563eb" font-size="20" font-weight="bold" transform="translate(400 450)">
            Gemscoder
        </text><text y="25" fill="#64748b" font-size="14" transform="translate(400 450)">
            25 Years of Excellence
        </text></g></svg>