<svg xmlns="http://www.w3.org/2000/svg" width="32" height="32" fill="none"><defs><linearGradient id="a" x1="0" x2="32" y1="0" y2="32"><stop offset="0%" stop-color="#3B82F6"/><stop offset="100%" stop-color="#2563EB"/></linearGradient><linearGradient id="b" x1="16" x2="16" y1="0" y2="32"><stop offset="0%" stop-color="#fff" stop-opacity=".3"/><stop offset="100%" stop-color="#fff" stop-opacity="0"/></linearGradient></defs><path fill="url(#a)" d="m16 2 12 7v14l-12 7-12-7V9Z"/><path fill="#fff" d="m16 8 7 4v8l-7 4-7-4v-8Z" opacity=".2"/><circle cx="16" cy="16" r="4" fill="#fff"/><path fill="url(#b)" d="m16 2 12 7v14l-12 7-12-7V9Z" opacity=".5"/><path stroke="#fff" d="M16 12V8M16 24v-4M12 14l-3-2M20 14l3-2M12 18l-3 2M20 18l3 2" opacity=".6"/></svg>