<svg xmlns="http://www.w3.org/2000/svg" width="200" height="50" fill="none"><defs><linearGradient id="a" x1="0" x2="50" y1="0" y2="50"><stop offset="0%" stop-color="#3B82F6"/><stop offset="100%" stop-color="#2563EB"/></linearGradient><linearGradient id="c" x1="0" x2="1" y1="0" y2="1"><stop offset="0%" stop-color="#fff" stop-opacity=".3"/><stop offset="100%" stop-color="#fff" stop-opacity="0"/></linearGradient><filter id="b" width="200%" height="200%" x="-50%" y="-50%"><feGaussianBlur in="SourceGraphic" stdDeviation="2"/><feComposite in="SourceGraphic"/></filter></defs><path fill="url(#a)" d="M20 5h15l5 10-12.5 25h-15L0 15 5 5Z" filter="url(#b)" transform="translate(10 5)"/><path fill="url(#c)" d="M20 5h15l5 10-12.5 5h-15L0 15 5 5Z" opacity=".5" transform="translate(10 5)"/><path fill="#fff" d="M25 17h10l-5 6Z" opacity=".3"/><g font-family="Arial" font-size="24" font-weight="700" letter-spacing=".5"><text y="30" fill="#2563EB" transform="translate(60)">
            Gems
        </text><text x="70" y="30" fill="#3B82F6" transform="translate(60)">
            coder
        </text></g><text x="60" y="45" fill="#64748B" font-family="Arial" font-size="10" letter-spacing="1">
        DIGITAL INNOVATION
    </text><g fill="#3B82F6" transform="translate(170 15)"><circle r="2" opacity=".5"/><circle cx="8" r="2" opacity=".5"/><circle cx="16" r="2" opacity=".5"/></g></svg>