<svg xmlns="http://www.w3.org/2000/svg" width="800" height="400" fill="none"><defs><linearGradient id="b" x1="0" x2="800" y1="0" y2="400"><stop offset="0%" stop-color="#3B82F6"/><stop offset="100%" stop-color="#2563EB"/></linearGradient></defs><pattern id="a" width="40" height="40" patternUnits="userSpaceOnUse"><path stroke="#E5E7EB" d="M40 0H0v40"/></pattern><path fill="url(#a)" d="M0 0h800v400H0z" opacity=".1"/><rect width="600" height="300" x="100" y="50" fill="url(#b)" opacity=".9" rx="15"/><rect width="560" height="260" x="120" y="70" fill="#fff" rx="10"/><g transform="translate(140 90)"><rect width="160" height="100" fill="#F3F4F6" rx="8"/><circle cx="30" cy="30" r="15" fill="url(#b)"/><text x="80" y="35" fill="#1F2937" font-family="Arial" font-size="14">Technology</text><text x="80" y="60" fill="#6B7280" font-family="Arial" font-size="12">24 Posts</text></g><g transform="translate(320 90)"><rect width="160" height="100" fill="#F3F4F6" rx="8"/><circle cx="30" cy="30" r="15" fill="url(#b)"/><text x="80" y="35" fill="#1F2937" font-family="Arial" font-size="14">Development</text><text x="80" y="60" fill="#6B7280" font-family="Arial" font-size="12">18 Posts</text></g><g transform="translate(500 90)"><rect width="160" height="100" fill="#F3F4F6" rx="8"/><circle cx="30" cy="30" r="15" fill="url(#b)"/><text x="80" y="35" fill="#1F2937" font-family="Arial" font-size="14">Design</text><text x="80" y="60" fill="#6B7280" font-family="Arial" font-size="12">15 Posts</text></g><g transform="translate(140 210)"><rect width="160" height="100" fill="#F3F4F6" rx="8"/><circle cx="30" cy="30" r="15" fill="url(#b)"/><text x="80" y="35" fill="#1F2937" font-family="Arial" font-size="14">Business</text><text x="80" y="60" fill="#6B7280" font-family="Arial" font-size="12">12 Posts</text></g><g transform="translate(320 210)"><rect width="160" height="100" fill="#F3F4F6" rx="8"/><circle cx="30" cy="30" r="15" fill="url(#b)"/><text x="80" y="35" fill="#1F2937" font-family="Arial" font-size="14">Innovation</text><text x="80" y="60" fill="#6B7280" font-family="Arial" font-size="12">9 Posts</text></g><g transform="translate(500 210)"><rect width="160" height="100" fill="#F3F4F6" rx="8"/><circle cx="30" cy="30" r="15" fill="url(#b)"/><text x="80" y="35" fill="#1F2937" font-family="Arial" font-size="14">Strategy</text><text x="80" y="60" fill="#6B7280" font-family="Arial" font-size="12">7 Posts</text></g><g fill="#3B82F6"><circle cx="170" cy="120" r="3"><animate attributeName="opacity" dur="2s" repeatCount="indefinite" values="0;1;0"/></circle><circle cx="350" cy="120" r="3"><animate attributeName="opacity" begin="0.5s" dur="2s" repeatCount="indefinite" values="0;1;0"/></circle><circle cx="530" cy="120" r="3"><animate attributeName="opacity" begin="1s" dur="2s" repeatCount="indefinite" values="0;1;0"/></circle></g></svg>