<svg xmlns="http://www.w3.org/2000/svg" width="800" height="400" fill="none"><defs><linearGradient id="b" x1="0" x2="800" y1="0" y2="400"><stop offset="0%" stop-color="#3B82F6"/><stop offset="100%" stop-color="#2563EB"/></linearGradient></defs><pattern id="a" width="30" height="30" patternUnits="userSpaceOnUse"><circle cx="2" cy="2" r="1" fill="#E5E7EB"/></pattern><path fill="url(#a)" d="M0 0h800v400H0z" opacity=".1"/><rect width="600" height="300" x="100" y="50" fill="url(#b)" opacity=".9" rx="15"/><rect width="560" height="260" x="120" y="70" fill="#fff" rx="10"/><rect width="520" height="120" x="140" y="90" fill="#F3F4F6" rx="8"/><g transform="translate(340 130)"><path stroke="#60A5FA" stroke-width="2" d="M0 20 40 0l40 30 40-20"/><circle cx="20" cy="10" r="5" fill="#3B82F6"/></g><g transform="translate(140 230)"><rect width="520" height="20" fill="#F3F4F6" rx="4"/><rect width="300" height="6" x="20" y="7" fill="#3B82F6" rx="2"/><g fill="#F3F4F6" transform="translate(0 30)"><rect width="100" height="16" rx="3"/><rect width="100" height="16" x="120" rx="3"/><rect width="100" height="16" x="240" rx="3"/></g><g fill="#E5E7EB" transform="translate(0 60)"><rect width="520" height="8" rx="2"/><rect width="480" height="8" y="16" rx="2"/><rect width="500" height="8" y="32" rx="2"/></g></g><g transform="translate(140 90)"><rect width="60" height="60" fill="url(#b)" rx="8"/><text x="30" y="25" fill="#fff" font-family="Arial" font-size="14" text-anchor="middle">28</text><text x="30" y="45" fill="#fff" font-family="Arial" font-size="12" text-anchor="middle">MAR</text></g><g transform="translate(580 90)"><rect width="80" height="30" fill="url(#b)" rx="15"/><text x="40" y="20" fill="#fff" font-family="Arial" font-size="12" text-anchor="middle">Tech</text></g><g fill="#3B82F6"><circle cx="240" cy="245" r="2"><animate attributeName="opacity" dur="2s" repeatCount="indefinite" values="0;1;0"/></circle><circle cx="360" cy="245" r="2"><animate attributeName="opacity" begin="0.5s" dur="2s" repeatCount="indefinite" values="0;1;0"/></circle><circle cx="480" cy="245" r="2"><animate attributeName="opacity" begin="1s" dur="2s" repeatCount="indefinite" values="0;1;0"/></circle></g></svg>