<svg xmlns="http://www.w3.org/2000/svg" width="800" height="400" fill="none"><defs><linearGradient id="b" x1="0" x2="800" y1="0" y2="400"><stop offset="0%" stop-color="#3B82F6"/><stop offset="100%" stop-color="#2563EB"/></linearGradient></defs><pattern id="a" width="40" height="40" patternUnits="userSpaceOnUse"><path stroke="#E5E7EB" d="M40 0H0v40"/></pattern><path fill="url(#a)" d="M0 0h800v400H0z" opacity=".1"/><rect width="600" height="300" x="100" y="50" fill="url(#b)" opacity=".9" rx="15"/><rect width="560" height="260" x="120" y="70" fill="#fff" rx="10"/><g transform="translate(140 90)"><rect width="320" height="40" fill="#F3F4F6" rx="5"/><rect width="200" height="10" x="20" y="15" fill="#60A5FA" rx="2"/><rect width="320" height="160" y="60" fill="#F3F4F6" rx="5"/><g fill="#E5E7EB" transform="translate(20 80)"><rect width="280" height="8" rx="2"/><rect width="260" height="8" y="20" rx="2"/><rect width="270" height="8" y="40" rx="2"/><rect width="250" height="8" y="60" rx="2"/><rect width="240" height="8" y="80" rx="2"/></g></g><g transform="translate(480 90)"><rect width="180" height="220" fill="#F3F4F6" rx="8"/><g fill="#fff" transform="translate(20 20)"><rect width="140" height="30" rx="5"/><rect width="140" height="30" y="40" rx="5"/><rect width="140" height="30" y="80" rx="5"/><rect width="140" height="30" y="120" rx="5"/><rect width="140" height="30" y="160" rx="5"/></g></g><g transform="translate(200 40)"><rect width="30" height="30" fill="url(#b)" rx="5"/><path fill="#fff" d="M5 8h20v2H5zM5 14h15v2H5zM5 20h18v2H5z"/></g><g transform="translate(550 40)"><rect width="30" height="30" fill="url(#b)" rx="5"/><path stroke="#fff" stroke-width="2" d="m5 20 7-5 6 3 7-8"/><circle cx="8" cy="8" r="3" fill="#fff"/></g><g fill="#3B82F6"><circle cx="460" cy="150" r="3"><animate attributeName="opacity" dur="2s" repeatCount="indefinite" values="0;1;0"/></circle><circle cx="460" cy="190" r="3"><animate attributeName="opacity" begin="0.5s" dur="2s" repeatCount="indefinite" values="0;1;0"/></circle><circle cx="460" cy="230" r="3"><animate attributeName="opacity" begin="1s" dur="2s" repeatCount="indefinite" values="0;1;0"/></circle></g></svg>