<svg xmlns="http://www.w3.org/2000/svg" width="400" height="400" fill="none"><circle cx="200" cy="200" r="200" fill="#E5E7EB"/><path fill="#3B82F6" d="m100 280 100 120 100-120-30-30-70 30-70-30Z"/><path fill="#2563EB" d="m160 280 40 120 40-120-40 20Z"/><path fill="#FCD34D" d="M170 250h60l-10 30h-40Z"/><circle cx="200" cy="180" r="80" fill="#FCD34D"/><path fill="#111827" d="M120 140q80-60 160 0v40H120Z"/><path fill="#111827" d="M120 140v40q20 20 0-40M280 140v40q-20 20 0-40"/><rect width="30" height="20" x="155" y="160" stroke="#4B5563" stroke-width="3" rx="5"/><rect width="30" height="20" x="215" y="160" stroke="#4B5563" stroke-width="3" rx="5"/><path stroke="#4B5563" stroke-width="3" d="M185 170h30"/><circle cx="170" cy="170" r="6" fill="#1F2937"/><circle cx="230" cy="170" r="6" fill="#1F2937"/><path stroke="#111827" stroke-width="4" d="M160 155q10-5 20 0M220 155q10-5 20 0"/><path stroke="#BE8D4D" stroke-width="2" d="M195 175q5 15 10 0"/><path stroke="#BE8D4D" stroke-width="3" d="M180 210q20 10 40 0"/></svg>