<?xml version="1.0" encoding="UTF-8"?>
<svg width="400" height="400" viewBox="0 0 400 400" fill="none" xmlns="http://www.w3.org/2000/svg">
    <!-- Background -->
    <circle cx="200" cy="200" r="200" fill="#E5E7EB"/>
    
    <!-- Suit -->
    <path d="M100 280 L200 400 L300 280 L270 250 L200 280 L130 250 Z" fill="#1F2937"/>
    <path d="M160 280 L200 400 L240 280 L200 300 Z" fill="#111827"/>
    
    <!-- Neck -->
    <path d="M170 250 L230 250 L220 280 L180 280 Z" fill="#FCD34D"/>
    
    <!-- Head -->
    <circle cx="200" cy="180" r="80" fill="#FCD34D"/>
    
    <!-- Hair -->
    <path d="M140 140 Q200 100 260 140 Q230 80 140 140" fill="#4B5563"/>
    <path d="M130 180 Q120 140 140 120 L150 140 Q140 150 130 180" fill="#4B5563"/>
    
    <!-- Eyes -->
    <circle cx="170" cy="170" r="8" fill="#1F2937"/>
    <circle cx="230" cy="170" r="8" fill="#1F2937"/>
    
    <!-- Eyebrows -->
    <path d="M160 155 Q170 150 180 155" stroke="#4B5563" stroke-width="4"/>
    <path d="M220 155 Q230 150 240 155" stroke="#4B5563" stroke-width="4"/>
    
    <!-- Nose -->
    <path d="M195 175 Q200 190 205 175" stroke="#BE8D4D" stroke-width="2"/>
    
    <!-- Mouth -->
    <path d="M180 210 Q200 220 220 210" stroke="#BE8D4D" stroke-width="3"/>
    
    <!-- Shirt Collar -->
    <path d="M180 250 L200 270 L220 250" stroke="white" stroke-width="4"/>
</svg> 