<?xml version="1.0" encoding="UTF-8"?>
<svg width="800" height="400" viewBox="0 0 800 400" fill="none" xmlns="http://www.w3.org/2000/svg">
    <!-- Definitions -->
    <defs>
        <linearGradient id="crmGradient" x1="0" y1="0" x2="800" y2="400">
            <stop offset="0%" stop-color="#3B82F6"/>
            <stop offset="100%" stop-color="#2563EB"/>
        </linearGradient>
    </defs>

    <!-- Background Pattern -->
    <pattern id="crmGrid" width="40" height="40" patternUnits="userSpaceOnUse">
        <circle cx="2" cy="2" r="1" fill="#E5E7EB"/>
    </pattern>
    <rect width="800" height="400" fill="url(#crmGrid)" opacity="0.1"/>

    <!-- Main Dashboard -->
    <rect x="50" y="50" width="700" height="300" rx="15" fill="url(#crmGradient)" opacity="0.9"/>
    <rect x="70" y="70" width="660" height="260" rx="10" fill="white"/>

    <!-- Sidebar -->
    <g transform="translate(90,90)">
        <rect width="160" height="220" fill="#F3F4F6" rx="8"/>
        <g transform="translate(20,20)">
            <rect width="120" height="30" fill="white" rx="5"/>
            <rect y="50" width="120" height="30" fill="white" rx="5"/>
            <rect y="100" width="120" height="30" fill="white" rx="5"/>
            <rect y="150" width="120" height="30" fill="white" rx="5"/>
        </g>
    </g>

    <!-- Main Content -->
    <g transform="translate(270,90)">
        <!-- Customer List -->
        <rect width="440" height="100" fill="#F3F4F6" rx="8"/>
        <g transform="translate(20,20)">
            <circle cx="30" cy="30" r="20" fill="#93C5FD"/>
            <rect x="70" y="20" width="150" height="20" fill="white" rx="3"/>
            <circle cx="230" cy="30" r="20" fill="#60A5FA"/>
            <rect x="270" y="20" width="150" height="20" fill="white" rx="3"/>
        </g>

        <!-- Analytics -->
        <g transform="translate(0,120)">
            <rect width="210" height="100" fill="#F3F4F6" rx="8"/>
            <path d="M20 80 L70 40 L120 60 L170 20" 
                  stroke="#3B82F6" 
                  stroke-width="2" 
                  fill="none"/>
        </g>

        <!-- Activity Feed -->
        <g transform="translate(230,120)">
            <rect width="210" height="100" fill="#F3F4F6" rx="8"/>
            <g transform="translate(20,20)">
                <rect width="170" height="10" fill="white" rx="2"/>
                <rect y="20" width="140" height="10" fill="white" rx="2"/>
                <rect y="40" width="160" height="10" fill="white" rx="2"/>
            </g>
        </g>
    </g>

    <!-- Automation Flow -->
    <g id="automationFlow">
        <circle cx="170" cy="125" r="3" fill="#3B82F6">
            <animate attributeName="opacity" values="0;1;0" dur="2s" repeatCount="indefinite"/>
        </circle>
        <circle cx="170" cy="175" r="3" fill="#3B82F6">
            <animate attributeName="opacity" values="0;1;0" dur="2s" repeatCount="indefinite" begin="0.5s"/>
        </circle>
        <circle cx="170" cy="225" r="3" fill="#3B82F6">
            <animate attributeName="opacity" values="0;1;0" dur="2s" repeatCount="indefinite" begin="1s"/>
        </circle>
    </g>

    <!-- Connection Lines -->
    <path d="M250 140 L270 140" stroke="url(#crmGradient)" stroke-width="2" stroke-dasharray="5,5"/>
    <path d="M250 190 L270 190" stroke="url(#crmGradient)" stroke-width="2" stroke-dasharray="5,5"/>
    <path d="M250 240 L270 240" stroke="url(#crmGradient)" stroke-width="2" stroke-dasharray="5,5"/>
</svg> 