<svg xmlns="http://www.w3.org/2000/svg" width="800" height="400" fill="none"><defs><linearGradient id="b" x1="0" x2="800" y1="0" y2="400"><stop offset="0%" stop-color="#3B82F6"/><stop offset="100%" stop-color="#2563EB"/></linearGradient></defs><pattern id="a" width="40" height="40" patternUnits="userSpaceOnUse"><circle cx="2" cy="2" r="1" fill="#E5E7EB"/></pattern><path fill="url(#a)" d="M0 0h800v400H0z" opacity=".1"/><rect width="700" height="300" x="50" y="50" fill="url(#b)" opacity=".9" rx="15"/><rect width="660" height="260" x="70" y="70" fill="#fff" rx="10"/><g transform="translate(90 90)"><rect width="160" height="220" fill="#F3F4F6" rx="8"/><g fill="#fff" transform="translate(20 20)"><rect width="120" height="30" rx="5"/><rect width="120" height="30" y="50" rx="5"/><rect width="120" height="30" y="100" rx="5"/><rect width="120" height="30" y="150" rx="5"/></g></g><g transform="translate(270 90)"><rect width="440" height="100" fill="#F3F4F6" rx="8"/><g transform="translate(20 20)"><circle cx="30" cy="30" r="20" fill="#93C5FD"/><rect width="150" height="20" x="70" y="20" fill="#fff" rx="3"/><circle cx="230" cy="30" r="20" fill="#60A5FA"/><rect width="150" height="20" x="270" y="20" fill="#fff" rx="3"/></g><g transform="translate(0 120)"><rect width="210" height="100" fill="#F3F4F6" rx="8"/><path stroke="#3B82F6" stroke-width="2" d="m20 80 50-40 50 20 50-40"/></g><g transform="translate(230 120)"><rect width="210" height="100" fill="#F3F4F6" rx="8"/><g fill="#fff" transform="translate(20 20)"><rect width="170" height="10" rx="2"/><rect width="140" height="10" y="20" rx="2"/><rect width="160" height="10" y="40" rx="2"/></g></g></g><g fill="#3B82F6"><circle cx="170" cy="125" r="3"><animate attributeName="opacity" dur="2s" repeatCount="indefinite" values="0;1;0"/></circle><circle cx="170" cy="175" r="3"><animate attributeName="opacity" begin="0.5s" dur="2s" repeatCount="indefinite" values="0;1;0"/></circle><circle cx="170" cy="225" r="3"><animate attributeName="opacity" begin="1s" dur="2s" repeatCount="indefinite" values="0;1;0"/></circle></g><path stroke="url(#b)" stroke-dasharray="5,5" stroke-width="2" d="M250 140h20M250 190h20M250 240h20"/></svg>