<?xml version="1.0" encoding="UTF-8"?>
<svg width="800" height="400" viewBox="0 0 800 400" fill="none" xmlns="http://www.w3.org/2000/svg">
    <!-- Definitions -->
    <defs>
        <linearGradient id="shopGradient" x1="0" y1="0" x2="800" y2="400">
            <stop offset="0%" stop-color="#3B82F6"/>
            <stop offset="100%" stop-color="#2563EB"/>
        </linearGradient>
    </defs>

    <!-- Background Pattern -->
    <pattern id="dots" width="20" height="20" patternUnits="userSpaceOnUse">
        <circle cx="2" cy="2" r="1" fill="#E5E7EB"/>
    </pattern>
    <rect width="800" height="400" fill="url(#dots)" opacity="0.2"/>

    <!-- Mobile Device -->
    <rect x="150" y="100" width="200" height="300" rx="20" fill="url(#shopGradient)" opacity="0.9"/>
    <rect x="170" y="120" width="160" height="260" rx="10" fill="white"/>
    
    <!-- App Interface -->
    <rect x="180" y="130" width="140" height="40" rx="5" fill="#F3F4F6"/>
    <rect x="180" y="180" width="65" height="65" rx="5" fill="#E5E7EB"/>
    <rect x="255" y="180" width="65" height="65" rx="5" fill="#E5E7EB"/>
    <rect x="180" y="255" width="65" height="65" rx="5" fill="#E5E7EB"/>
    <rect x="255" y="255" width="65" height="65" rx="5" fill="#E5E7EB"/>

    <!-- Desktop Interface -->
    <rect x="450" y="100" width="300" height="200" rx="10" fill="url(#shopGradient)" opacity="0.9"/>
    <rect x="470" y="120" width="260" height="160" rx="5" fill="white"/>
    
    <!-- Website Layout -->
    <rect x="480" y="130" width="240" height="30" rx="5" fill="#F3F4F6"/>
    <rect x="480" y="170" width="115" height="100" rx="5" fill="#E5E7EB"/>
    <rect x="605" y="170" width="115" height="100" rx="5" fill="#E5E7EB"/>

    <!-- Connection Lines -->
    <path d="M350 200 L450 200" stroke="url(#shopGradient)" stroke-width="2" stroke-dasharray="5,5"/>
    
    <!-- Shopping Cart Icon -->
    <circle cx="600" cy="320" r="40" fill="url(#shopGradient)" opacity="0.8"/>
    <path d="M580 320 L620 320 M600 300 L600 340" stroke="white" stroke-width="3"/>

    <!-- Data Flow Animation -->
    <g id="dataFlow">
        <circle cx="400" cy="200" r="3" fill="white">
            <animate attributeName="opacity" values="0;1;0" dur="1.5s" repeatCount="indefinite"/>
        </circle>
        <circle cx="425" cy="200" r="3" fill="white">
            <animate attributeName="opacity" values="0;1;0" dur="1.5s" repeatCount="indefinite" begin="0.5s"/>
        </circle>
    </g>
</svg> 