<svg xmlns="http://www.w3.org/2000/svg" width="800" height="400" fill="none"><defs><linearGradient id="b" x1="0" x2="800" y1="0" y2="400"><stop offset="0%" stop-color="#3B82F6"/><stop offset="100%" stop-color="#2563EB"/></linearGradient></defs><pattern id="a" width="20" height="20" patternUnits="userSpaceOnUse"><circle cx="2" cy="2" r="1" fill="#E5E7EB"/></pattern><path fill="url(#a)" d="M0 0h800v400H0z" opacity=".2"/><rect width="200" height="300" x="150" y="100" fill="url(#b)" opacity=".9" rx="20"/><rect width="160" height="260" x="170" y="120" fill="#fff" rx="10"/><rect width="140" height="40" x="180" y="130" fill="#F3F4F6" rx="5"/><rect width="65" height="65" x="180" y="180" fill="#E5E7EB" rx="5"/><rect width="65" height="65" x="255" y="180" fill="#E5E7EB" rx="5"/><rect width="65" height="65" x="180" y="255" fill="#E5E7EB" rx="5"/><rect width="65" height="65" x="255" y="255" fill="#E5E7EB" rx="5"/><rect width="300" height="200" x="450" y="100" fill="url(#b)" opacity=".9" rx="10"/><rect width="260" height="160" x="470" y="120" fill="#fff" rx="5"/><rect width="240" height="30" x="480" y="130" fill="#F3F4F6" rx="5"/><rect width="115" height="100" x="480" y="170" fill="#E5E7EB" rx="5"/><rect width="115" height="100" x="605" y="170" fill="#E5E7EB" rx="5"/><path stroke="url(#b)" stroke-dasharray="5,5" stroke-width="2" d="M350 200h100"/><circle cx="600" cy="320" r="40" fill="url(#b)" opacity=".8"/><path stroke="#fff" stroke-width="3" d="M580 320h40m-20-20v40"/><g fill="#fff"><circle cx="400" cy="200" r="3"><animate attributeName="opacity" dur="1.5s" repeatCount="indefinite" values="0;1;0"/></circle><circle cx="425" cy="200" r="3"><animate attributeName="opacity" begin="0.5s" dur="1.5s" repeatCount="indefinite" values="0;1;0"/></circle></g></svg>