<svg xmlns="http://www.w3.org/2000/svg" width="800" height="400" fill="none"><defs><linearGradient id="b" x1="0" x2="800" y1="0" y2="400"><stop offset="0%" stop-color="#3B82F6"/><stop offset="100%" stop-color="#2563EB"/></linearGradient></defs><pattern id="a" width="40" height="40" patternUnits="userSpaceOnUse"><path stroke="#E5E7EB" d="M40 0H0v40"/></pattern><path fill="url(#a)" d="M0 0h800v400H0z" opacity=".2"/><circle cx="400" cy="200" r="60" fill="url(#b)" opacity=".9"/><text x="400" y="205" fill="#fff" font-family="Arial" font-size="14" text-anchor="middle">ERP Core</text><circle cx="200" cy="150" r="40" fill="url(#b)" opacity=".8"/><text x="200" y="155" fill="#fff" font-family="Arial" font-size="12" text-anchor="middle">Finance</text><path stroke="url(#b)" stroke-width="2" d="m240 160 100 20"/><circle cx="600" cy="150" r="40" fill="url(#b)" opacity=".8"/><text x="600" y="155" fill="#fff" font-family="Arial" font-size="12" text-anchor="middle">HR</text><path stroke="url(#b)" stroke-width="2" d="m560 160-100 20"/><circle cx="200" cy="250" r="40" fill="url(#b)" opacity=".8"/><text x="200" y="255" fill="#fff" font-family="Arial" font-size="12" text-anchor="middle">Inventory</text><path stroke="url(#b)" stroke-width="2" d="m240 240 100-20"/><circle cx="600" cy="250" r="40" fill="url(#b)" opacity=".8"/><text x="600" y="255" fill="#fff" font-family="Arial" font-size="12" text-anchor="middle">Production</text><path stroke="url(#b)" stroke-width="2" d="m560 240-100-20"/><g fill="#fff"><circle cx="320" cy="170" r="3"><animate attributeName="opacity" dur="2s" repeatCount="indefinite" values="0;1;0"/></circle><circle cx="480" cy="170" r="3"><animate attributeName="opacity" begin="0.5s" dur="2s" repeatCount="indefinite" values="0;1;0"/></circle><circle cx="320" cy="230" r="3"><animate attributeName="opacity" begin="1s" dur="2s" repeatCount="indefinite" values="0;1;0"/></circle><circle cx="480" cy="230" r="3"><animate attributeName="opacity" begin="1.5s" dur="2s" repeatCount="indefinite" values="0;1;0"/></circle></g></svg>