<?xml version="1.0" encoding="UTF-8"?>
<svg width="800" height="400" viewBox="0 0 800 400" fill="none" xmlns="http://www.w3.org/2000/svg">
    <!-- Definitions -->
    <defs>
        <linearGradient id="psaGradient" x1="0" y1="0" x2="800" y2="400">
            <stop offset="0%" stop-color="#3B82F6"/>
            <stop offset="100%" stop-color="#2563EB"/>
        </linearGradient>
    </defs>

    <!-- Background Pattern -->
    <pattern id="psaGrid" width="30" height="30" patternUnits="userSpaceOnUse">
        <rect width="30" height="30" fill="none" stroke="#E5E7EB" stroke-width="1"/>
    </pattern>
    <rect width="800" height="400" fill="url(#psaGrid)" opacity="0.1"/>

    <!-- Project Timeline -->
    <g transform="translate(50,50)">
        <rect width="300" height="150" rx="10" fill="url(#psaGradient)" opacity="0.9"/>
        
        <!-- Gantt Chart -->
        <rect x="20" y="20" width="260" height="110" fill="white" rx="5"/>
        <g transform="translate(30,40)">
            <rect width="100" height="20" fill="#93C5FD" rx="3"/>
            <rect y="30" width="150" height="20" fill="#60A5FA" rx="3"/>
            <rect y="60" width="80" height="20" fill="#3B82F6" rx="3"/>
        </g>
    </g>

    <!-- Resource Allocation -->
    <g transform="translate(450,50)">
        <rect width="300" height="150" rx="10" fill="url(#psaGradient)" opacity="0.9"/>
        
        <!-- Resource Chart -->
        <rect x="20" y="20" width="260" height="110" fill="white" rx="5"/>
        <g transform="translate(40,35)">
            <circle cx="0" cy="0" r="15" fill="#93C5FD"/>
            <circle cx="0" cy="40" r="15" fill="#60A5FA"/>
            <circle cx="0" cy="80" r="15" fill="#3B82F6"/>
            <rect x="40" y="-10" width="180" height="20" fill="#E5E7EB" rx="3"/>
            <rect x="40" y="30" width="140" height="20" fill="#E5E7EB" rx="3"/>
            <rect x="40" y="70" width="160" height="20" fill="#E5E7EB" rx="3"/>
        </g>
    </g>

    <!-- Analytics Dashboard -->
    <g transform="translate(50,250)">
        <rect width="300" height="100" rx="10" fill="url(#psaGradient)" opacity="0.9"/>
        
        <!-- Charts -->
        <rect x="20" y="20" width="260" height="60" fill="white" rx="5"/>
        <g transform="translate(40,30)">
            <path d="M0 40 L40 20 L80 30 L120 10 L160 25 L200 5" 
                  stroke="#3B82F6" 
                  stroke-width="2" 
                  fill="none"/>
        </g>
    </g>

    <!-- Task Management -->
    <g transform="translate(450,250)">
        <rect width="300" height="100" rx="10" fill="url(#psaGradient)" opacity="0.9"/>
        
        <!-- Task List -->
        <rect x="20" y="20" width="260" height="60" fill="white" rx="5"/>
        <g transform="translate(40,35)">
            <rect width="180" height="10" fill="#E5E7EB" rx="2"/>
            <rect y="20" width="140" height="10" fill="#E5E7EB" rx="2"/>
        </g>
    </g>

    <!-- Connection Lines -->
    <path d="M350 125 L450 125" stroke="url(#psaGradient)" stroke-width="2" stroke-dasharray="5,5"/>
    <path d="M350 300 L450 300" stroke="url(#psaGradient)" stroke-width="2" stroke-dasharray="5,5"/>
    <path d="M200 200 L200 250" stroke="url(#psaGradient)" stroke-width="2" stroke-dasharray="5,5"/>
    <path d="M600 200 L600 250" stroke="url(#psaGradient)" stroke-width="2" stroke-dasharray="5,5"/>

    <!-- Data Flow Animation -->
    <g id="dataFlow">
        <circle cx="400" cy="125" r="3" fill="white">
            <animate attributeName="opacity" values="0;1;0" dur="2s" repeatCount="indefinite"/>
        </circle>
        <circle cx="400" cy="300" r="3" fill="white">
            <animate attributeName="opacity" values="0;1;0" dur="2s" repeatCount="indefinite" begin="1s"/>
        </circle>
    </g>
</svg> 