<svg xmlns="http://www.w3.org/2000/svg" width="800" height="400" fill="none"><defs><linearGradient id="b" x1="0" x2="800" y1="0" y2="400"><stop offset="0%" stop-color="#3B82F6"/><stop offset="100%" stop-color="#2563EB"/></linearGradient></defs><pattern id="a" width="30" height="30" patternUnits="userSpaceOnUse"><path stroke="#E5E7EB" d="M0 0h30v30H0z"/></pattern><path fill="url(#a)" d="M0 0h800v400H0z" opacity=".1"/><g transform="translate(50 50)"><rect width="300" height="150" fill="url(#b)" opacity=".9" rx="10"/><rect width="260" height="110" x="20" y="20" fill="#fff" rx="5"/><g transform="translate(30 40)"><rect width="100" height="20" fill="#93C5FD" rx="3"/><rect width="150" height="20" y="30" fill="#60A5FA" rx="3"/><rect width="80" height="20" y="60" fill="#3B82F6" rx="3"/></g></g><g transform="translate(450 50)"><rect width="300" height="150" fill="url(#b)" opacity=".9" rx="10"/><rect width="260" height="110" x="20" y="20" fill="#fff" rx="5"/><g transform="translate(40 35)"><circle r="15" fill="#93C5FD"/><circle cy="40" r="15" fill="#60A5FA"/><circle cy="80" r="15" fill="#3B82F6"/><rect width="180" height="20" x="40" y="-10" fill="#E5E7EB" rx="3"/><rect width="140" height="20" x="40" y="30" fill="#E5E7EB" rx="3"/><rect width="160" height="20" x="40" y="70" fill="#E5E7EB" rx="3"/></g></g><g transform="translate(50 250)"><rect width="300" height="100" fill="url(#b)" opacity=".9" rx="10"/><rect width="260" height="60" x="20" y="20" fill="#fff" rx="5"/><path stroke="#3B82F6" stroke-width="2" d="m40 70 40-20 40 10 40-20 40 15 40-20"/></g><g transform="translate(450 250)"><rect width="300" height="100" fill="url(#b)" opacity=".9" rx="10"/><rect width="260" height="60" x="20" y="20" fill="#fff" rx="5"/><g fill="#E5E7EB" transform="translate(40 35)"><rect width="180" height="10" rx="2"/><rect width="140" height="10" y="20" rx="2"/></g></g><path stroke="url(#b)" stroke-dasharray="5,5" stroke-width="2" d="M350 125h100M350 300h100M200 200v50M600 200v50"/><g fill="#fff"><circle cx="400" cy="125" r="3"><animate attributeName="opacity" dur="2s" repeatCount="indefinite" values="0;1;0"/></circle><circle cx="400" cy="300" r="3"><animate attributeName="opacity" begin="1s" dur="2s" repeatCount="indefinite" values="0;1;0"/></circle></g></svg>