<?xml version="1.0" encoding="UTF-8"?>
<svg width="800" height="400" viewBox="0 0 800 400" fill="none" xmlns="http://www.w3.org/2000/svg">
    <!-- Definitions -->
    <defs>
        <linearGradient id="chainGradient" x1="0" y1="0" x2="800" y2="400">
            <stop offset="0%" stop-color="#3B82F6"/>
            <stop offset="100%" stop-color="#2563EB"/>
        </linearGradient>
    </defs>

    <!-- Background Pattern -->
    <pattern id="chainGrid" width="40" height="40" patternUnits="userSpaceOnUse">
        <path d="M40 0 L0 0 L0 40" stroke="#E5E7EB" stroke-width="1" fill="none"/>
    </pattern>
    <rect width="800" height="400" fill="url(#chainGrid)" opacity="0.1"/>

    <!-- Supply Chain Path -->
    <path d="M100 200 L700 200" stroke="url(#chainGradient)" stroke-width="4" stroke-dasharray="10,10"/>

    <!-- Warehouse -->
    <rect x="50" y="150" width="100" height="100" fill="url(#chainGradient)" opacity="0.9"/>
    <rect x="80" y="200" width="40" height="50" fill="white"/>
    <rect x="70" y="170" width="20" height="20" fill="white"/>
    
    <!-- Truck 1 -->
    <g transform="translate(200,180)">
        <rect width="80" height="40" fill="url(#chainGradient)"/>
        <rect x="-20" y="20" width="40" height="20" fill="url(#chainGradient)"/>
        <circle cx="0" cy="40" r="10" fill="#1F2937"/>
        <circle cx="60" cy="40" r="10" fill="#1F2937"/>
    </g>

    <!-- Distribution Center -->
    <g transform="translate(350,150)">
        <rect width="100" height="100" fill="url(#chainGradient)" opacity="0.9"/>
        <path d="M20 100 L50 70 L80 100" fill="white"/>
        <rect x="35" y="40" width="30" height="30" fill="white"/>
    </g>

    <!-- Truck 2 -->
    <g transform="translate(500,180)">
        <rect width="80" height="40" fill="url(#chainGradient)"/>
        <rect x="-20" y="20" width="40" height="20" fill="url(#chainGradient)"/>
        <circle cx="0" cy="40" r="10" fill="#1F2937"/>
        <circle cx="60" cy="40" r="10" fill="#1F2937"/>
    </g>

    <!-- Retail Store -->
    <g transform="translate(650,150)">
        <path d="M0 100 L0 40 L50 0 L100 40 L100 100 Z" fill="url(#chainGradient)" opacity="0.9"/>
        <rect x="40" y="60" width="20" height="40" fill="white"/>
    </g>

    <!-- Data Flow Animation -->
    <g id="dataFlow">
        <circle cx="150" cy="200" r="3" fill="white">
            <animate attributeName="opacity" values="0;1;0" dur="3s" repeatCount="indefinite"/>
        </circle>
        <circle cx="300" cy="200" r="3" fill="white">
            <animate attributeName="opacity" values="0;1;0" dur="3s" repeatCount="indefinite" begin="1s"/>
        </circle>
        <circle cx="450" cy="200" r="3" fill="white">
            <animate attributeName="opacity" values="0;1;0" dur="3s" repeatCount="indefinite" begin="2s"/>
        </circle>
        <circle cx="600" cy="200" r="3" fill="white">
            <animate attributeName="opacity" values="0;1;0" dur="3s" repeatCount="indefinite" begin="3s"/>
        </circle>
    </g>

    <!-- Location Markers -->
    <g id="locations">
        <circle cx="100" cy="200" r="5" fill="white"/>
        <circle cx="400" cy="200" r="5" fill="white"/>
        <circle cx="700" cy="200" r="5" fill="white"/>
    </g>
</svg> 