<svg xmlns="http://www.w3.org/2000/svg" width="800" height="400" fill="none"><defs><linearGradient id="b" x1="0" x2="800" y1="0" y2="400"><stop offset="0%" stop-color="#3B82F6"/><stop offset="100%" stop-color="#2563EB"/></linearGradient></defs><pattern id="a" width="40" height="40" patternUnits="userSpaceOnUse"><path stroke="#E5E7EB" d="M40 0H0v40"/></pattern><path fill="url(#a)" d="M0 0h800v400H0z" opacity=".1"/><path stroke="url(#b)" stroke-dasharray="10,10" stroke-width="4" d="M100 200h600"/><path fill="url(#b)" d="M50 150h100v100H50z" opacity=".9"/><path fill="#fff" d="M80 200h40v50H80zM70 170h20v20H70z"/><g transform="translate(200 180)"><path fill="url(#b)" d="M0 0h80v40H0z"/><path fill="url(#b)" d="M-20 20h40v20h-40z"/><circle cy="40" r="10" fill="#1F2937"/><circle cx="60" cy="40" r="10" fill="#1F2937"/></g><path fill="url(#b)" d="M0 0h100v100H0z" opacity=".9" transform="translate(350 150)"/><path fill="#fff" d="m370 250 30-30 30 30M385 190h30v30h-30z"/><g transform="translate(500 180)"><path fill="url(#b)" d="M0 0h80v40H0z"/><path fill="url(#b)" d="M-20 20h40v20h-40z"/><circle cy="40" r="10" fill="#1F2937"/><circle cx="60" cy="40" r="10" fill="#1F2937"/></g><path fill="url(#b)" d="M0 100V40L50 0l50 40v60Z" opacity=".9" transform="translate(650 150)"/><path fill="#fff" d="M690 210h20v40h-20z"/><g fill="#fff"><circle cx="150" cy="200" r="3"><animate attributeName="opacity" dur="3s" repeatCount="indefinite" values="0;1;0"/></circle><circle cx="300" cy="200" r="3"><animate attributeName="opacity" begin="1s" dur="3s" repeatCount="indefinite" values="0;1;0"/></circle><circle cx="450" cy="200" r="3"><animate attributeName="opacity" begin="2s" dur="3s" repeatCount="indefinite" values="0;1;0"/></circle><circle cx="600" cy="200" r="3"><animate attributeName="opacity" begin="3s" dur="3s" repeatCount="indefinite" values="0;1;0"/></circle></g><g fill="#fff"><circle cx="100" cy="200" r="5"/><circle cx="400" cy="200" r="5"/><circle cx="700" cy="200" r="5"/></g></svg>